# xmcd
#
# Track frame offsets:
#	182
#	16672
#	39360
#	52755
#	69480
#	83802
#	97905
#	115190
#	129857
#	145980
#	159052
#	173052
#
# Disc length: 2545 seconds
#
# Revision: 8
# Processed by: cddbd v1.5.2PL0 Copyright (c) Steve Scherf et al.
# Submitted via: audiograbber 1.83.01
#
DISCID=8009ef0c
DTITLE=Various Artist - Soul Hits Of The '70s - Didn't It Blow Your Mind - Vol
DTITLE=ume 17
DYEAR=1995
DGENRE=Oldies
TTITLE0=Tower Of Power - So Very Hard To Go
TTITLE1=Kool and The Gang - Higher Plane
TTITLE2=Hues Corporation - Rockin' Soul
TTITLE3=Blue Magic - Three Ring Circus
TTITLE4=Eddie Kendricks - Shoeshine Boy
TTITLE5=Harold Melvin and The Bluenotes - Bad Luck - Part 1
TTITLE6=War - Why Can't We Be Friends
TTITLE7=People's Choice - Do it Any Way You Wanna
TTITLE8=O'Jays - I Love Music - Part 1
TTITLE9=Ohio Players - Love Rollercoaster
TTITLE10=Blackbyrds - Happy Music
TTITLE11=Brass Construction - Movin'
EXTD=
EXTT0=
EXTT1=
EXTT2=
EXTT3=
EXTT4=
EXTT5=
EXTT6=
EXTT7=
EXTT8=
EXTT9=
EXTT10=
EXTT11=
PLAYORDER=
